<?xml version="1.0" encoding="utf-8"?>
<!-- Generator: Adobe Illustrator 25.2.0, SVG Export Plug-In . SVG Version: 6.00 Build 0)  -->
<svg version="1.1" id="Слой_1" xmlns="http://www.w3.org/2000/svg" xmlns:xlink="http://www.w3.org/1999/xlink" x="0px" y="0px"
	 viewBox="0 0 343.1 184.4" style="enable-background:new 0 0 343.1 184.4;" xml:space="preserve">
<style type="text/css">
	.st0{fill-rule:evenodd;clip-rule:evenodd;fill:#1D1D1B;}
	.st1{fill-rule:evenodd;clip-rule:evenodd;fill:#00B0BE;}
	.st2{fill:#1D1D1B;}
</style>
<g id="Слой_2_1_">
	<g id="Слой_1-2">
		<polygon class="st0" points="165.6,97.7 150.7,97.7 150.7,51.1 165.6,62.2 		"/>
		<path class="st0" d="M282.2,83.5v9.2l-3.8,0.6v-9.6l1.8-1.4L282.2,83.5z"/>
		<polygon class="st0" points="42.5,59.7 109.2,20.1 109.2,20.1 117.5,26.3 63.6,60.2 		"/>
		<path class="st0" d="M112.8,17.7l68,50.1l9.7-5.3l0,0c-2.3,0.6-4.7,0.5-6.9-0.4c3.2-0.7,10.9-3.6,13.1-7.4
			c-1.7,1.1-3.7,1.5-5.7,1.3c0.9-0.4,1.6-1.1,1.9-2c-1.4,0.8-3.1,0.9-4.6,0.5c1.3-0.4,2.4-1.2,3-2.4c-1.7,0.7-3.6,0.5-5.1-0.6
			c5.4-1.5,8.9-3.5,11.1-7.1L181,50.3L112.8,17.7z M233.9,32.4l-1.8-0.7l-2.6,1c0.3,0.1,0.7,0.2,1,0.3c-1.1,0.5-2.3,0.7-3.5,0.6
			l-0.1,0c1,2.2,2.6,4.1,4.5,5.5c1.6-1.4,2.9-3.1,3.8-5.1c-1.3,0.1-2.7-0.1-3.9-0.6C232.2,33.2,233.1,32.9,233.9,32.4L233.9,32.4z
			 M212.4,47.5c-0.2-0.2-0.4-0.4-0.6-0.6c0.6-0.2,1.1-0.5,1.6-0.8C213.1,46.6,212.7,47.1,212.4,47.5z"/>
		<polygon class="st0" points="66.4,97.7 81.3,97.7 81.3,54.2 66.4,63.6 		"/>
		<path class="st1" d="M25.8,94.8c12.9-1.3,23.4-3.3,33.8-3.4c1.3,0,2.6,0,3.9,0.2c5.2,0.4,9.2,2.3,13.6,2.2
			c7.2,0,10.9-2.2,22.4-1.8c6.4,0.1,12.8,1.3,18.8,3.7c10.9,4.5,54.1-5.6,69.5-3.7c3,0.4,6.4,0.9,10.7,1.7
			c11.5-0.6,22.9-2.2,31.7-2.1c9,0,21.9,3.8,30.8,3.7c13.5-0.2,23-3.9,36.5-4c8,0,14.8,0.9,18.2,3.2c0.9,0.6,1.6,2.3,2,3.7H25.4
			L25.8,94.8z"/>
		<polygon class="st0" points="208.5,89.4 209.9,98 198.8,98 201.1,88.5 201.2,88.6 201.2,90 201.7,89.2 203.3,91.2 203.4,90.7 
			203.6,91.2 205.2,89.2 205.7,90 205.7,88.6 206.1,88.1 207.9,91.3 		"/>
		<path class="st0" d="M227.2,85.8l2.7,12.2h-14.8l3.3-10.2c0.6,0.1,1.2,0.1,1.8,0.1c-0.6-0.3-1.1-0.6-1.6-1l0.4-1.1
			c1.1,0.4,2.4,0.6,3.6,0.6c-0.2,0.1-0.4,0.2-0.5,0.2C223.9,86.7,225.6,86.4,227.2,85.8L227.2,85.8z M223.1,86.1
			c0.6-0.4,1.2-0.8,1.7-1.4l-0.5-0.9c-0.4,0.2-0.7,0.3-1.1,0.4v0.5l-0.2-0.4c-0.3,0.1-0.6,0.2-0.9,0.2l-0.6,0.7
			C222,85.6,222.6,85.9,223.1,86.1L223.1,86.1z"/>
		<path class="st0" d="M248.8,88.5l2.1,9.6h-14.8l3.1-9.7V89l0.6-1l1.9,2.4l0.2-0.6l0.2,0.6l1.9-2.3l0.6,1l-0.1-1.7l0.5-0.7l2.1,3.8
			l0.9-3.2C248.3,87.7,248.5,88.1,248.8,88.5z"/>
		<path class="st1" d="M203.4,27.3v0.2c-0.7,7.9-6.8,11-9.8,13c0,0,1.5,0.6,5.2-0.2c-1.2,1.1-2.7,1.9-4.3,2.3c1,0.5,2.2,0.7,3.3,0.6
			c-2.1,4.4-5.7,6.8-11.8,8.4c1.5,1.1,3.4,1.3,5.1,0.6c-0.6,1.2-1.7,2-3,2.4c1.6,0.4,3.2,0.2,4.6-0.5c-0.3,0.9-1,1.6-1.9,2
			c2,0.3,4.1-0.2,5.8-1.3c-2.2,3.8-9.9,6.7-13.1,7.4c2.2,0.9,4.6,1.1,6.9,0.4c-1,1.3-3.6,2.4-5.4,3c1.9,1,5,0.7,6.7,0
			c-3.4,4.2-9.6,6.6-13.6,7.5c3.4,1.7,5.3,1.2,6.5,0.7c-0.9,1.2-2.2,2-3.6,2.3c2.2,0.5,4.4,0.4,6.6-0.2c-0.5,1.3-1.3,2.4-2.5,3.2
			c2.6-0.1,4.2-0.1,7.3-2.7c-1.4,2.1-3.4,4.9-9.4,7.1c1.3,0.5,2.7,0.6,4,0.2c-0.5,1.3-2.6,2.3-3.7,2.8c2.3,0.3,4.6-0.2,6.5-1.5
			c-0.5,1.6-2.3,2.7-3.2,3.1c2.7,0,5.4-0.9,6.8-2.4c-0.3,1.5-1,2.8-2,3.9c1.4,0,2.8-0.4,3.9-1.2c0.2,1,0.1,2-0.2,3
			c1.3-0.5,2.3-1.4,2.9-2.7l0.8,2.7l1.8-3.2l0.4,0.6l-0.1,1.4l0.5-0.8l1.6,2l0.2-0.5l0.2,0.5l1.6-2l0.5,0.8l-0.1-1.4l0.4-0.6
			l1.8,3.2l0.8-2.7c0.6,1.2,1.7,2.2,2.9,2.7c-0.3-1-0.4-2-0.2-3c1.1,0.8,2.5,1.3,3.9,1.2c-1-1.1-1.7-2.4-2-3.9
			c1.4,1.5,4.1,2.4,6.8,2.4c-0.9-0.4-2.7-1.6-3.2-3.1c1.6,1.1,3.6,1.6,5.6,1.6c-0.2,0.1-0.4,0.2-0.5,0.2c2.1,0,4.2-0.4,6.1-1.4
			c0.4,0.3,0.8,0.5,1.2,0.7c-0.4,0.9-0.9,1.7-1.7,2.4c1.7,0.1,3.3-0.5,4.6-1.4c0.2,1.2,0.1,2.4-0.2,3.5c1.1-0.4,2.9-1.6,3.5-3.1
			l0.9,3.2l2.1-3.8l0.5,0.7l-0.1,1.6l0.6-1l1.9,2.4l0.2-0.6l0.2,0.6l1.9-2.3l0.6,1l-0.1-1.7l0.5-0.7l2.1,3.8l0.9-3.2
			c0.5,1.6,2.4,2.7,3.5,3.1c-0.4-1.1-0.4-2.3-0.2-3.5c1.3,1,3,1.5,4.6,1.5c-1.2-1.3-2-2.8-2.4-4.6c1.6,1.8,4.9,2.8,8,2.8
			c-1-0.5-3.2-1.8-3.7-3.7c2.2,1.5,5,2.1,7.6,1.7c-1.4-0.5-3.8-1.7-4.4-3.2c0.6,0.2,1.3,0.3,1.9,0.3c4.1,4,10.4,4.8,15.3,1.9
			l1.8-1.4l1.9,1.2c6.1,3.5,13.9,1.4,17.4-4.6s1.4-13.9-4.6-17.4c-0.4-0.3-0.9-0.5-1.4-0.7c-1.2-6.9-7.8-11.6-14.7-10.4
			c-5.2,0.9-9.3,4.9-10.3,10.1c-2.7,0.8-5.1,2.4-6.8,4.8c-2.4-1.3-4.5-3-6.2-5.1c2,0.8,5.7,1.2,7.9,0c-2.1-0.7-5.1-1.9-6.3-3.5
			c2.7,0.8,5.5,0.6,8.1-0.5c-3.8-0.8-12.8-4.2-15.4-8.6c2,1.3,4.4,1.8,6.8,1.5c-1-0.4-1.8-1.3-2.2-2.3c1.7,0.9,3.6,1.1,5.5,0.6
			c-1.5-0.4-2.7-1.4-3.5-2.8c2,0.8,4.3,0.6,6-0.7c-7.1-1.9-11.4-4.7-13.8-9.9c1.3,0.1,2.7-0.1,3.9-0.7c-1.6-0.2-3.7-1.6-5.1-2.7
			c4.3,0.9,6.1,0.2,6.1,0.2c-3.6-2.3-10.8-6-11.6-15.3l0,0c-0.8,8.7-7,12.4-10.8,14.8c-3.5-2.2-9.7-5.6-10.4-14l0,0
			c-0.8,8.7-7.4,12.1-10.8,14.3c0,0,1.7,0.6,5.7-0.2c-1.2,1-3.2,2.3-4.7,2.5c1.1,0.5,2.4,0.7,3.6,0.6c-0.9,2-2.3,3.8-4,5.2
			c-3-2.1-6.5-5.3-7-11.2L203.4,27.3L203.4,27.3z M260.9,78.9c-2.5-1.5-4.5-3.6-6.1-6c1.4,1.2,3,2.2,4.8,2.7
			C259.9,76.7,260.3,77.8,260.9,78.9L260.9,78.9z M223.1,86.1c-0.6-0.2-1.1-0.5-1.6-0.8l0.6-0.7c0.3-0.1,0.6-0.1,0.9-0.2l0.2,0.4
			v-0.5c0.4-0.1,0.8-0.3,1.1-0.4l0.5,0.9C224.3,85.3,223.8,85.8,223.1,86.1L223.1,86.1z M229.6,85.7c-0.1-0.4-0.2-0.8-0.2-1.2
			c0.3-0.2,0.5-0.4,0.7-0.7C230,84.5,229.9,85.1,229.6,85.7z M232,49.9c-0.5-0.3-0.9-0.6-1.4-1c1.2-0.3,2.3-0.7,3.3-1.3l0,0
			C233.4,48.4,232.7,49.2,232,49.9L232,49.9z M229,47.5c-0.1-0.1-0.2-0.3-0.4-0.4c0.2-0.1,0.4-0.2,0.6-0.3h0.1
			C229.3,47,229.1,47.3,229,47.5L229,47.5z M231.4,39c-2-1.4-3.5-3.3-4.6-5.6c1.2,0.1,2.5-0.1,3.6-0.6c-1.8-0.4-3.4-1.3-4.7-2.5
			c1.5,0.4,3.1,0.5,4.7,0.4l-0.2,0.1c0,0,1.8,0.7,6.1-0.2c-1.3,1.1-3.4,2.5-5.1,2.7c1.2,0.6,2.6,0.8,3.9,0.6
			C234.3,35.9,233,37.6,231.4,39z M212.3,47.5c-0.2-0.2-0.4-0.4-0.6-0.6c0.6-0.2,1.1-0.5,1.6-0.8C213,46.6,212.7,47.1,212.3,47.5
			L212.3,47.5z"/>
	</g>
</g>
<g>
	<path class="st2" d="M52.1,143.1h-9.2v-18.5h-4.1v8.9c0,3.4-0.7,5.9-2.2,7.5c-1.5,1.7-4,2.5-7.5,2.5c-0.6,0-1.8-0.1-3.4-0.4
		l0.6-7.1c0.6,0.3,1.3,0.4,1.8,0.4c1.2,0,1.8-1.2,1.8-3.5v-15.4h22V143.1z"/>
	<path class="st2" d="M74.6,143.1H56.9v-25.6h17.7v7.1H66v2.4h7.8v6.4H66v2.6h8.6V143.1z"/>
	<path class="st2" d="M97.7,142.4c-2.2,1-4.5,1.5-6.9,1.5c-4.2,0-7.5-1.2-10.1-3.7c-2.6-2.5-3.8-5.8-3.8-9.9c0-4.3,1.5-7.8,4.4-10.3
		c2.6-2.2,5.7-3.3,9.3-3.3c2.5,0,4.8,0.5,7,1.6v7.9c-1.7-1.2-3.6-1.9-5.7-1.9c-1.8,0-3.2,0.7-4.2,2c-0.9,1.2-1.4,2.6-1.4,4.3
		c0,1.6,0.5,3,1.6,4.1c1.1,1.1,2.4,1.7,4,1.7c2.3,0,4.2-0.6,5.7-1.8V142.4z"/>
	<path class="st2" d="M126.3,143.1h-9.2v-9.8h-6.6v9.8h-9.2v-25.6h9.2v9.4h6.6v-9.4h9.2V143.1z"/>
	<path class="st2" d="M158.9,130.3c0,3.8-1.2,6.9-3.5,9.4c-2.6,2.8-6.3,4.2-11,4.2c-4.7,0-8.4-1.4-11-4.2c-2.3-2.5-3.5-5.6-3.5-9.4
		c0-3.8,1.2-6.9,3.5-9.4c2.6-2.8,6.3-4.2,11-4.2c4.7,0,8.4,1.4,11,4.2C157.7,123.3,158.9,126.5,158.9,130.3z M149.4,130.3
		c0-1.7-0.5-3.1-1.5-4.2c-1-1-2.1-1.5-3.5-1.5c-1.4,0-2.6,0.5-3.5,1.5c-1,1.1-1.5,2.5-1.5,4.2c0,1.7,0.5,3.1,1.5,4.2
		c1,1,2.1,1.5,3.5,1.5c1.4,0,2.5-0.5,3.5-1.5C148.9,133.4,149.4,132,149.4,130.3z"/>
	<path class="st2" d="M180.1,143.1h-17.7v-25.6h17.7v7.1h-8.6v2.4h7.8v6.4h-7.8v2.6h8.6V143.1z"/>
	<path class="st2" d="M219.3,134.9c0,2.4-0.8,4.2-2.4,5.7c-1.9,1.7-4.7,2.5-8.5,2.5h-11.1v-25.6H217v7.1h-10.6v2.4h2.9
		c3.3,0,5.8,0.7,7.5,2.1C218.5,130.5,219.3,132.4,219.3,134.9z M210.1,135c0-1.2-1-1.8-3-1.8h-0.7v3.8h0.9
		C209.2,137,210.1,136.3,210.1,135z"/>
	<path class="st2" d="M261,130.3c0,4.2-1.3,7.5-4,10c-2.5,2.4-5.8,3.6-9.9,3.6c-3.5,0-6.5-0.9-8.9-2.8c-2.5-1.9-3.9-4.4-4.2-7.5
		h-2.2v9.5h-9.1v-25.6h9.1v9.2h2.2c0.5-2.9,1.9-5.3,4.1-7.1c2.4-1.9,5.4-2.9,9-2.9c4,0,7.3,1.2,9.9,3.6
		C259.7,122.8,261,126.1,261,130.3z M251.8,130.3c0-1.7-0.5-3.1-1.4-4.1c-0.8-0.9-1.9-1.3-3.2-1.3c-1.3,0-2.4,0.4-3.3,1.3
		c-1,1-1.4,2.3-1.4,4s0.5,3.1,1.4,4c0.9,0.9,2,1.3,3.3,1.3c1.3,0,2.3-0.4,3.2-1.3C251.4,133.3,251.8,132,251.8,130.3z"/>
	<path class="st2" d="M286.5,126.4c0,2.4-0.9,4.4-2.6,5.8c-1.8,1.4-4.2,2.1-7.4,2.1h-2.9v8.8h-9.2v-25.6h11.1c3.8,0,6.6,0.9,8.5,2.7
		C285.7,121.7,286.5,123.8,286.5,126.4z M277.3,125.9c0-1.5-0.9-2.3-2.8-2.3h-0.9v4.6h0.7C276.4,128.2,277.3,127.4,277.3,125.9z"/>
	<path class="st2" d="M317.8,130.3c0,3.8-1.2,6.9-3.5,9.4c-2.6,2.8-6.3,4.2-11,4.2c-4.7,0-8.4-1.4-11-4.2c-2.3-2.5-3.5-5.6-3.5-9.4
		c0-3.8,1.2-6.9,3.5-9.4c2.6-2.8,6.3-4.2,11-4.2c4.7,0,8.4,1.4,11,4.2C316.6,123.3,317.8,126.5,317.8,130.3z M308.3,130.3
		c0-1.7-0.5-3.1-1.5-4.2c-1-1-2.1-1.5-3.5-1.5c-1.4,0-2.6,0.5-3.5,1.5c-1,1.1-1.5,2.5-1.5,4.2c0,1.7,0.5,3.1,1.5,4.2
		c1,1,2.1,1.5,3.5,1.5c1.4,0,2.5-0.5,3.5-1.5C307.8,133.4,308.3,132,308.3,130.3z"/>
</g>
<g>
	<g>
		<path class="st2" d="M35.7,166.9h-3.3v-3.6h-2.4v3.6h-3.3v-9.3h3.3v3.4h2.4v-3.4h3.3V166.9z"/>
		<path class="st2" d="M46.6,166.9h-3.5l-0.4-1.7h-2.4l-0.4,1.7h-3.5l2.7-9.3h4.8L46.6,166.9z M42.2,162.9l-0.7-2.7h0l-0.7,2.7H42.2
			z"/>
		<path class="st2" d="M55.8,164c0,0.8-0.3,1.4-0.8,1.9c-0.6,0.6-1.6,0.9-2.9,0.9h-4.8v-9.3H52c1.2,0,2.1,0.2,2.6,0.7
			c0.4,0.4,0.6,0.9,0.6,1.6c0,0.5-0.2,0.8-0.5,1.2c-0.3,0.3-0.6,0.5-1,0.6c0.6,0.2,1.2,0.4,1.5,0.9C55.6,162.8,55.8,163.4,55.8,164z
			 M52.1,160.5c0-0.5-0.3-0.8-0.8-0.8h-0.7v1.6c0.5,0,0.9-0.1,1.1-0.2C52,161,52.1,160.8,52.1,160.5z M52.3,163.9
			c0-0.6-0.3-0.8-0.9-0.8h-0.8v1.6h0.8c0.2,0,0.4-0.1,0.6-0.2C52.2,164.3,52.3,164.1,52.3,163.9z"/>
		<path class="st2" d="M63.5,166.9H57v-9.3h6.5v2.6h-3.1v0.9h2.8v2.3h-2.8v0.9h3.1V166.9z"/>
		<path class="st2" d="M71.9,166.6c-0.8,0.4-1.6,0.6-2.5,0.6c-1.5,0-2.7-0.5-3.7-1.4c-0.9-0.9-1.4-2.1-1.4-3.6
			c0-1.6,0.5-2.8,1.6-3.7c0.9-0.8,2.1-1.2,3.4-1.2c0.9,0,1.8,0.2,2.6,0.6v2.9c-0.6-0.5-1.3-0.7-2.1-0.7c-0.7,0-1.2,0.2-1.5,0.7
			c-0.3,0.4-0.5,1-0.5,1.6c0,0.6,0.2,1.1,0.6,1.5c0.4,0.4,0.9,0.6,1.5,0.6c0.8,0,1.5-0.2,2.1-0.7V166.6z"/>
		<path class="st2" d="M81,163.6c0,0.9-0.3,1.7-0.9,2.3c-0.7,0.7-1.7,1-3.1,1h-3.8v-9.3h3.3v3.2h0.8c1.2,0,2.1,0.3,2.7,0.8
			C80.7,162,81,162.7,81,163.6z M77.8,163.8c0-0.6-0.4-0.8-1.1-0.8h-0.1v1.7h0.1C77.4,164.6,77.8,164.4,77.8,163.8z M84.9,166.9
			h-3.3v-9.3h3.3V166.9z"/>
		<path class="st2" d="M103.3,163.9c0,0.9-0.3,1.5-0.9,2.1c-0.7,0.6-1.7,0.9-3.1,0.9h-4v-9.3h7.2v2.6h-3.8v0.9h1.1
			c1.2,0,2.1,0.3,2.7,0.8C103,162.3,103.3,163,103.3,163.9z M99.9,163.9c0-0.4-0.4-0.7-1.1-0.7h-0.3v1.4h0.3
			C99.6,164.6,99.9,164.4,99.9,163.9z"/>
		<path class="st2" d="M110.9,166.9h-6.5v-9.3h6.5v2.6h-3.1v0.9h2.8v2.3h-2.8v0.9h3.1V166.9z"/>
		<path class="st2" d="M119.3,166.6c-0.8,0.4-1.6,0.6-2.5,0.6c-1.5,0-2.7-0.5-3.7-1.4c-0.9-0.9-1.4-2.1-1.4-3.6
			c0-1.6,0.5-2.8,1.6-3.7c0.9-0.8,2.1-1.2,3.4-1.2c0.9,0,1.8,0.2,2.6,0.6v2.9c-0.6-0.5-1.3-0.7-2.1-0.7c-0.7,0-1.2,0.2-1.5,0.7
			c-0.3,0.4-0.5,1-0.5,1.6c0,0.6,0.2,1.1,0.6,1.5c0.4,0.4,0.9,0.6,1.5,0.6c0.8,0,1.5-0.2,2.1-0.7V166.6z"/>
		<path class="st2" d="M127.1,166.9h-6.5v-9.3h6.5v2.6H124v0.9h2.8v2.3H124v0.9h3.1V166.9z"/>
		<path class="st2" d="M138.3,168.7h-3.2v-1.9h-4.4v1.9h-3.2v-4.4c0.6,0,1.1-0.3,1.3-0.9c0.2-0.5,0.3-1.2,0.3-2.2v-3.6h8v6.7h1.1
			V168.7z M133.8,164.3v-4.1h-1.5v1.4c0,1.4-0.3,2.3-0.8,2.7H133.8z"/>
		<path class="st2" d="M148.8,157.5l-3.1,4.6l3.1,4.7h-3.9l-2.2-3.9v3.9h-3.3v-9.3h3.3v3.7l2.3-3.7H148.8z"/>
		<path class="st2" d="M158.8,166.9h-3.3v-4.5l-2.8,4.5h-3.1v-9.3h3.3v4.6l2.8-4.6h3.1V166.9z"/>
		<path class="st2" d="M178.1,166.9h-3.3v-6.7h-2.3v6.7h-3.3v-9.3h8.9V166.9z"/>
		<path class="st2" d="M186.2,166.9h-6.5v-9.3h6.5v2.6h-3.1v0.9h2.8v2.3h-2.8v0.9h3.1V166.9z"/>
		<path class="st2" d="M195.7,160.8c0,0.9-0.3,1.6-0.9,2.1c-0.6,0.5-1.5,0.8-2.7,0.8H191v3.2h-3.3v-9.3h4c1.4,0,2.4,0.3,3.1,1
			C195.4,159.1,195.7,159.9,195.7,160.8z M192.3,160.6c0-0.6-0.3-0.8-1-0.8H191v1.7h0.3C192,161.5,192.3,161.2,192.3,160.6z"/>
		<path class="st2" d="M203,160.1h-2.7v6.7h-3.3v-9.3h6.1V160.1z"/>
		<path class="st2" d="M213.8,162.2c0,1.4-0.4,2.5-1.3,3.4c-1,1-2.3,1.5-4,1.5c-1.7,0-3.1-0.5-4-1.5c-0.8-0.9-1.3-2-1.3-3.4
			c0-1.4,0.4-2.5,1.3-3.4c1-1,2.3-1.5,4-1.5c1.7,0,3,0.5,4,1.5C213.4,159.7,213.8,160.8,213.8,162.2z M210.4,162.2
			c0-0.6-0.2-1.1-0.6-1.5c-0.4-0.4-0.8-0.5-1.3-0.5c-0.5,0-0.9,0.2-1.3,0.5c-0.4,0.4-0.6,0.9-0.6,1.5c0,0.6,0.2,1.1,0.6,1.5
			c0.3,0.4,0.8,0.5,1.3,0.5c0.5,0,0.9-0.2,1.3-0.5C210.2,163.3,210.4,162.8,210.4,162.2z"/>
		<path class="st2" d="M223.5,166.9h-3.3v-6.7h-1.5v3.2c0,1.2-0.3,2.1-0.8,2.7c-0.6,0.6-1.5,0.9-2.7,0.9c-0.2,0-0.6-0.1-1.2-0.2
			l0.2-2.6c0.2,0.1,0.5,0.2,0.7,0.2c0.4,0,0.7-0.4,0.7-1.3v-5.6h8V166.9z"/>
		<path class="st2" d="M233,163.6c0,0.9-0.3,1.7-0.9,2.3c-0.7,0.7-1.7,1-3.1,1h-3.8v-9.3h3.3v3.2h0.8c1.2,0,2.1,0.3,2.7,0.8
			C232.7,162,233,162.7,233,163.6z M229.8,163.8c0-0.6-0.4-0.8-1.1-0.8h-0.1v1.7h0.1C229.4,164.6,229.8,164.4,229.8,163.8z
			 M236.9,166.9h-3.3v-9.3h3.3V166.9z"/>
		<path class="st2" d="M255.7,164c0,0.8-0.3,1.4-0.8,1.9c-0.6,0.6-1.6,0.9-2.9,0.9h-4.8v-9.3h4.6c1.2,0,2.1,0.2,2.6,0.7
			c0.4,0.4,0.6,0.9,0.6,1.6c0,0.5-0.2,0.8-0.5,1.2c-0.3,0.3-0.6,0.5-1,0.6c0.6,0.2,1.2,0.4,1.5,0.9
			C255.5,162.8,255.7,163.4,255.7,164z M252,160.5c0-0.5-0.3-0.8-0.8-0.8h-0.7v1.6c0.5,0,0.9-0.1,1.1-0.2
			C251.9,161,252,160.8,252,160.5z M252.2,163.9c0-0.6-0.3-0.8-0.9-0.8h-0.8v1.6h0.8c0.2,0,0.4-0.1,0.6-0.2
			C252.1,164.3,252.2,164.1,252.2,163.9z"/>
		<path class="st2" d="M263.4,166.9h-6.5v-9.3h6.5v2.6h-3.1v0.9h2.8v2.3h-2.8v0.9h3.1V166.9z"/>
		<path class="st2" d="M272.8,160.8c0,0.9-0.3,1.6-0.9,2.1c-0.6,0.5-1.5,0.8-2.7,0.8h-1.1v3.2h-3.3v-9.3h4c1.4,0,2.4,0.3,3.1,1
			C272.6,159.1,272.8,159.9,272.8,160.8z M269.5,160.6c0-0.6-0.3-0.8-1-0.8h-0.3v1.7h0.3C269.1,161.5,269.5,161.2,269.5,160.6z"/>
		<path class="st2" d="M282.8,166.9h-3.5l-0.4-1.7h-2.4l-0.4,1.7h-3.5l2.7-9.3h4.8L282.8,166.9z M278.3,162.9l-0.7-2.7h0l-0.7,2.7
			H278.3z"/>
		<path class="st2" d="M292.5,166.9h-3.3v-3.6h-2.4v3.6h-3.3v-9.3h3.3v3.4h2.4v-3.4h3.3V166.9z"/>
		<path class="st2" d="M304.1,168.7H301v-1.9h-4.4v1.9h-3.2v-4.4c0.6,0,1.1-0.3,1.3-0.9c0.2-0.5,0.3-1.2,0.3-2.2v-3.6h8v6.7h1.1
			V168.7z M299.7,164.3v-4.1h-1.5v1.4c0,1.4-0.3,2.3-0.8,2.7H299.7z"/>
		<path class="st2" d="M313,163.6c0,0.9-0.3,1.7-0.9,2.3c-0.7,0.7-1.7,1-3.1,1h-3.8v-9.3h3.3v3.2h0.8c1.2,0,2.1,0.3,2.7,0.8
			C312.7,162,313,162.7,313,163.6z M309.8,163.8c0-0.6-0.4-0.8-1.1-0.8h-0.1v1.7h0.1C309.4,164.6,309.8,164.4,309.8,163.8z
			 M316.9,166.9h-3.3v-9.3h3.3V166.9z"/>
	</g>
	<circle class="st2" cx="90" cy="161.9" r="1.1"/>
	<circle class="st2" cx="163.9" cy="161.9" r="1.1"/>
	<circle class="st2" cx="242.1" cy="161.9" r="1.1"/>
</g>
</svg>
