<svg width="35" height="26" viewBox="0 0 35 26" fill="none" xmlns="http://www.w3.org/2000/svg">
<g id="icon">
<path id="Vector" d="M22.0312 22.9444C21.5225 22.9444 21.0811 22.5663 21.0151 22.0485C20.9438 21.4867 21.3412 20.9734 21.9027 20.9019C25.1429 20.489 28.0444 19.6111 30.0727 18.4292C31.9278 17.3486 32.9492 16.078 32.9492 14.8519C32.9492 13.5004 31.754 12.3946 30.751 11.7046C30.2845 11.3837 30.1665 10.7455 30.4874 10.2787C30.8084 9.81222 31.4468 9.69423 31.9134 10.0152C33.9326 11.4042 34.9999 13.0766 34.9999 14.8521C34.9999 16.8671 33.6533 18.7168 31.1053 20.2013C28.8118 21.5374 25.7193 22.4832 22.162 22.9364C22.118 22.9417 22.0742 22.9444 22.0312 22.9444ZM17.25 21.4755L14.5157 18.7411C14.1151 18.3405 13.466 18.3405 13.0654 18.7411C12.6651 19.1414 12.6651 19.7908 13.0654 20.1911L13.8643 20.99C10.801 20.6735 8.01806 19.9604 5.86317 18.924C3.44038 17.759 2.05078 16.2746 2.05078 14.8519C2.05078 13.6451 3.04575 12.3909 4.85214 11.3202C5.33954 11.0315 5.50018 10.4024 5.21157 9.9153C4.92269 9.42797 4.29351 9.26726 3.80652 9.55587C0.66035 11.4208 0 13.4652 0 14.8519C0 17.1269 1.76668 19.2295 4.9745 20.7725C7.46421 21.9694 10.6849 22.7714 14.1936 23.0816L13.0654 24.2098C12.6651 24.6101 12.6651 25.2596 13.0654 25.6601C13.1606 25.7554 13.2737 25.8309 13.3982 25.8824C13.5226 25.9339 13.656 25.9603 13.7907 25.9602C14.0529 25.9602 14.3154 25.8601 14.5157 25.6601L17.25 22.9257C17.6503 22.5251 17.6503 21.8757 17.25 21.4755Z" fill="url(#paint0_linear_132_2855)"/>
<path id="Vector_2" d="M10.7419 12.7984V12.5517C10.7419 11.6815 10.2092 11.5127 9.49482 11.5127C9.05322 11.5127 8.91035 11.123 8.91035 10.7335C8.91035 10.3437 9.05322 9.95401 9.49482 9.95401C9.98838 9.95401 10.5079 9.88914 10.5079 8.83702C10.5079 8.0837 10.0794 7.90187 9.54664 7.90187C8.91035 7.90187 8.58564 8.05786 8.58564 8.5644C8.58564 9.0058 8.39068 9.3046 7.63743 9.3046C6.70228 9.3046 6.58559 9.10971 6.58559 8.4862C6.58559 7.47332 7.31273 6.16144 9.54664 6.16144C11.1964 6.16144 12.4431 6.75876 12.4431 8.51231C12.4431 9.46032 12.0925 10.3437 11.4431 10.6424C12.2094 10.9281 12.7679 11.4996 12.7679 12.5517V12.7984C12.7679 14.9285 11.3002 15.7339 9.48184 15.7339C7.24785 15.7339 6.39062 14.3701 6.39062 13.2791C6.39062 12.6946 6.6374 12.5386 7.35169 12.5386C8.18294 12.5386 8.39075 12.7204 8.39075 13.2142C8.39075 13.8247 8.96237 13.9675 9.54671 13.9675C10.43 13.9675 10.7419 13.6428 10.7419 12.7984ZM20.6518 12.5517V12.6686C20.6518 14.9026 19.2619 15.7339 17.4697 15.7339C15.6775 15.7339 14.2744 14.9026 14.2744 12.6686V9.22667C14.2744 6.99269 15.7161 6.16144 17.5867 6.16144C19.7816 6.16144 20.6519 7.52514 20.6519 8.60316C20.6519 9.2266 20.353 9.42129 19.7036 9.42129C19.1453 9.42129 18.6516 9.27842 18.6516 8.68109C18.6516 8.18761 18.1322 7.92777 17.5217 7.92777C16.7554 7.92777 16.3006 8.33048 16.3006 9.2266V10.3954C16.7164 9.94096 17.3009 9.82393 17.9244 9.82393C19.4048 9.82393 20.6518 10.4733 20.6518 12.5517ZM16.3006 12.8115C16.3006 13.7077 16.7423 14.0973 17.4697 14.0973C18.1971 14.0973 18.6257 13.7076 18.6257 12.8115V12.6946C18.6257 11.7463 18.197 11.3827 17.4566 11.3827C16.7553 11.3827 16.3006 11.7204 16.3006 12.5776V12.8115ZM22.2233 12.6686V9.22667C22.2233 6.99269 23.6129 6.16144 25.4055 6.16144C27.1979 6.16144 28.6005 6.99269 28.6005 9.22667V12.6686C28.6005 14.9026 27.1978 15.7339 25.4055 15.7339C23.6129 15.7339 22.2233 14.9026 22.2233 12.6686ZM26.5743 9.22667C26.5743 8.33048 26.1329 7.92784 25.4055 7.92784C24.6781 7.92784 24.2495 8.33048 24.2495 9.22667V12.6686C24.2495 13.5648 24.6781 13.9675 25.4055 13.9675C26.1328 13.9675 26.5743 13.5648 26.5743 12.6686V9.22667ZM31.062 6.15234C29.3655 6.15234 27.9858 4.7723 27.9858 3.07617C27.9858 1.38004 29.3655 0 31.062 0C32.7581 0 34.1382 1.38004 34.1382 3.07617C34.1382 4.7723 32.7581 6.15234 31.062 6.15234ZM31.062 2.05078C30.4964 2.05078 30.0366 2.51084 30.0366 3.07617C30.0366 3.64171 30.4964 4.10156 31.062 4.10156C31.6273 4.10156 32.0874 3.64171 32.0874 3.07617C32.0874 2.51084 31.6273 2.05078 31.062 2.05078Z" fill="url(#paint1_linear_132_2855)"/>
</g>
<defs>
<linearGradient id="paint0_linear_132_2855" x1="0" y1="17.6863" x2="34.9999" y2="17.6863" gradientUnits="userSpaceOnUse">
<stop stop-color="#EB1B24"/>
<stop offset="1" stop-color="#FF5058"/>
</linearGradient>
<linearGradient id="paint1_linear_132_2855" x1="6.39062" y1="7.86693" x2="34.1382" y2="7.86693" gradientUnits="userSpaceOnUse">
<stop stop-color="#EB1B24"/>
<stop offset="1" stop-color="#FF5058"/>
</linearGradient>
</defs>
</svg>
