<svg width="11" height="7" viewBox="0 0 11 7" fill="none" xmlns="http://www.w3.org/2000/svg">
<path d="M5.50039 6.62017C5.39704 6.62076 5.29458 6.60097 5.1989 6.56192C5.10322 6.52286 5.0162 6.46532 4.94282 6.39259L0.230953 1.68421C0.0830765 1.53644 0 1.33603 0 1.12705C0 0.918078 0.0830765 0.717662 0.230953 0.569894C0.37883 0.422126 0.579395 0.339111 0.788524 0.339111C0.997654 0.339111 1.19822 0.422126 1.34609 0.569894L5.50039 4.72897L9.65469 0.577742C9.80492 0.449182 9.99816 0.382004 10.1958 0.389632C10.3934 0.397261 10.5809 0.479134 10.7208 0.61889C10.8607 0.758647 10.9426 0.945992 10.9502 1.14349C10.9579 1.34099 10.8906 1.53409 10.762 1.68421L6.05011 6.39259C5.90383 6.53757 5.70641 6.6193 5.50039 6.62017Z" fill="white"/>
</svg>
