<svg width="15" height="15" viewBox="0 0 15 15" fill="none" xmlns="http://www.w3.org/2000/svg">
<g id="Frame" clip-path="url(#clip0_123_44)">
<g id="Group">
<path id="Vector" fill-rule="evenodd" clip-rule="evenodd" d="M1.80045 0.375C1.01925 0.375 0.375 1.0188 0.375 1.8V5.5995C0.375 6.3807 1.01925 7.0245 1.80045 7.0245H5.5995C6.3807 7.0245 7.02495 6.3807 7.02495 5.5995V1.8C7.02495 1.0188 6.3807 0.375 5.5995 0.375H1.80045ZM9.4005 0.375C8.6193 0.375 7.9755 1.0188 7.9755 1.8V5.5995C7.9755 6.3807 8.6193 7.0245 9.4005 7.0245H13.1996C13.9808 7.0245 14.625 6.3807 14.625 5.5995V1.8C14.625 1.0188 13.9808 0.375 13.1996 0.375H9.4005ZM1.80045 7.97505C1.01925 7.97505 0.375 8.6193 0.375 9.4005V13.1996C0.375 13.9808 1.01925 14.625 1.80045 14.625H5.5995C6.3807 14.625 7.02495 13.9808 7.02495 13.1996V9.4005C7.02495 8.6193 6.3807 7.97505 5.5995 7.97505H1.80045ZM11.2991 7.97505C9.4683 7.97505 7.9755 9.47025 7.9755 11.301C7.9755 13.1318 9.4683 14.625 11.2991 14.625C13.1298 14.625 14.625 13.1316 14.625 11.301C14.625 9.4704 13.1298 7.97505 11.2991 7.97505Z" fill="#F9F9F9"/>
</g>
</g>
<defs>
<clipPath id="clip0_123_44">
<rect width="15" height="15" fill="white"/>
</clipPath>
</defs>
</svg>
