<svg width="10" height="10" viewBox="0 0 10 10" fill="none" xmlns="http://www.w3.org/2000/svg">
<g id="Frame" clip-path="url(#clip0_149_12661)">
<g id="Group">
<path id="Vector" d="M0.947952 9.93737C0.702791 9.95163 0.461674 9.87012 0.275444 9.71004C-0.0918148 9.3406 -0.0918148 8.74392 0.275444 8.37448L8.31722 0.332672C8.6992 -0.0247619 9.29859 -0.00489239 9.65603 0.37709C9.97924 0.722514 9.99808 1.25344 9.70013 1.62089L1.61098 9.71004C1.42717 9.86781 1.1899 9.94916 0.947952 9.93737Z" fill="#3E414A"/>
<path id="Vector_2" d="M8.9795 9.93738C8.73101 9.93633 8.49288 9.83768 8.31644 9.6627L0.274636 1.62087C-0.0656111 1.22354 -0.0193528 0.625582 0.377976 0.285304C0.732602 -0.0183852 1.25561 -0.0183852 1.6102 0.285304L9.69936 8.32711C10.0812 8.68464 10.101 9.28406 9.74346 9.66595C9.72924 9.68114 9.71455 9.69583 9.69936 9.71005C9.60136 9.79527 9.48689 9.85942 9.36305 9.89853C9.23921 9.93763 9.10866 9.95086 8.9795 9.93738Z" fill="#3E414A"/>
</g>
</g>
<defs>
<clipPath id="clip0_149_12661">
<rect width="10" height="10" fill="white"/>
</clipPath>
</defs>
</svg>
