<svg width="55" height="55" viewBox="0 0 55 55" fill="none" xmlns="http://www.w3.org/2000/svg">
<g id="icon">
<rect id="Rectangle 627" width="55" height="55" rx="8" fill="white"/>
<g id="Group">
<path id="Vector" d="M29.096 34.5648L29.096 34.5648C28.7934 34.8675 28.3969 35.0188 28 35.0188C27.603 35.0188 27.2067 34.8675 26.904 34.5648L20.7036 28.3645C20.0983 27.7592 20.0983 26.7778 20.7036 26.1725C21.309 25.5671 22.2904 25.5671 22.8957 26.1725L26.1086 29.3853L26.45 29.7268V29.2439V15.75C26.45 14.894 27.144 14.2 28 14.2C28.856 14.2 29.55 14.894 29.55 15.75V29.2439V29.7268L29.8914 29.3853L33.1043 26.1725C33.7096 25.5671 34.691 25.5671 35.2964 26.1725C35.9017 26.7778 35.9017 27.7592 35.2964 28.3645L29.096 34.5648ZM41.8 40.25C41.8 41.106 41.106 41.8 40.25 41.8H15.75C14.894 41.8 14.2 41.106 14.2 40.25C14.2 39.394 14.894 38.7 15.75 38.7H40.25C41.106 38.7 41.8 39.394 41.8 40.25Z" fill="#3E414A" stroke="white" stroke-width="0.4"/>
</g>
</g>
</svg>
