<svg width="15" height="15" viewBox="0 0 15 15" fill="none" xmlns="http://www.w3.org/2000/svg">
<g id="Frame">
<g id="Group">
<path id="16" d="M7.49865 10C7.4164 10.0005 7.33486 9.98471 7.25871 9.95361C7.18256 9.92251 7.1133 9.87668 7.0549 9.81875L3.3049 6.06875C3.18721 5.95106 3.12109 5.79144 3.12109 5.625C3.12109 5.45856 3.18721 5.29894 3.3049 5.18125C3.42259 5.06356 3.58221 4.99744 3.74865 4.99744C3.91509 4.99744 4.07471 5.06356 4.1924 5.18125L7.49865 8.49375L10.8049 5.1875C10.9245 5.08511 11.0783 5.03161 11.2356 5.03768C11.3929 5.04376 11.5421 5.10897 11.6534 5.22027C11.7647 5.33158 11.8299 5.4808 11.836 5.63809C11.842 5.79539 11.7885 5.94919 11.6862 6.06875L7.93615 9.81875C7.81974 9.93422 7.66261 9.99931 7.49865 10Z" fill="#3E414A"/>
</g>
</g>
</svg>
