<svg width="18" height="18" viewBox="0 0 18 18" fill="none" xmlns="http://www.w3.org/2000/svg">
    <g id="material-symbols:mail">
        <path id="Vector" d="M3 15C2.5875 15 2.2345 14.8532 1.941 14.5597C1.6475 14.2662 1.5005 13.913 1.5 13.5V4.49999C1.5 4.08749 1.647 3.73449 1.941 3.44099C2.235 3.14749 2.588 3.00049 3 2.99999H15C15.4125 2.99999 15.7657 3.14699 16.0597 3.44099C16.3538 3.73499 16.5005 4.08799 16.5 4.49999V13.5C16.5 13.9125 16.3533 14.2657 16.0597 14.5597C15.7662 14.8537 15.413 15.0005 15 15H3ZM9 9.74999L15 5.99999V4.49999L9 8.24999L3 4.49999V5.99999L9 9.74999Z" fill="#3E414A" fill-opacity="0.1" />
    </g>
</svg>
