<?xml version="1.0" encoding="utf-8"?>
<!-- Generator: Adobe Illustrator 24.0.2, SVG Export Plug-In . SVG Version: 6.00 Build 0)  -->
<svg version="1.1" id="Слой_1" xmlns="http://www.w3.org/2000/svg" xmlns:xlink="http://www.w3.org/1999/xlink" x="0px" y="0px"
	 viewBox="0 0 223.8 39.1" style="enable-background:new 0 0 223.8 39.1;" xml:space="preserve">
<style type="text/css">
	.st0{fill:#3E414A;}
	.st1{fill:#EB1B24;}
	.st2{fill:#E52528;}
	.st3{fill:url(#SVGID_1_);}
	.st4{fill-rule:evenodd;clip-rule:evenodd;fill:#3E414A;}
</style>
<g id="Ð_xBC_Ð_xB5_Ñ_x82_Ð_xB0_Ð_xBB_Ð_xB8_Ñ_x83_Ñ_x81_.">
	<path class="st0" d="M36.8,30V9.6h4.2L48,22.8l7.1-13.2h4.2V30h-4.9V19.8L48.9,30h-1.8l-5.4-10.2V30H36.8z"/>
	<path class="st0" d="M74,30.6c-2.1,0-3.9-0.4-5.5-1.3c-1.6-0.9-2.8-2.1-3.7-3.7c-0.9-1.6-1.3-3.4-1.3-5.4c0-2.2,0.4-4.2,1.3-5.8
		c0.9-1.6,2.1-2.9,3.6-3.8c1.5-0.9,3.3-1.4,5.3-1.4c2.1,0,4,0.5,5.5,1.5c1.5,1,2.6,2.4,3.3,4.2c0.7,1.8,1,4,0.8,6.4h-5.1v-1.9
		c0-2.1-0.3-3.6-1-4.5c-0.7-0.9-1.7-1.4-3.2-1.4c-1.7,0-3,0.5-3.9,1.6c-0.8,1.1-1.2,2.6-1.2,4.7c0,1.9,0.4,3.4,1.2,4.4
		c0.8,1,2,1.5,3.6,1.5c1,0,1.9-0.2,2.6-0.7c0.7-0.4,1.3-1.1,1.6-1.9l5.1,1.5c-0.8,1.9-2,3.3-3.6,4.3C77.8,30,76,30.6,74,30.6z
		 M67.3,21.2v-3.8h13.5v3.8H67.3z"/>
	<path class="st0" d="M91.8,30V14.2h-6.7V9.6h18.5v4.5h-6.7V30H91.8z"/>
	<path class="st0" d="M112.5,30.6c-1.5,0-2.7-0.3-3.7-0.8c-1-0.6-1.8-1.3-2.3-2.2c-0.5-0.9-0.8-2-0.8-3.1c0-0.9,0.1-1.8,0.4-2.6
		c0.3-0.8,0.8-1.5,1.4-2.1c0.7-0.6,1.5-1.1,2.6-1.5c0.8-0.3,1.7-0.5,2.7-0.7c1-0.2,2.2-0.4,3.5-0.6c1.3-0.2,2.8-0.4,4.4-0.7l-1.8,1
		c0-1.2-0.3-2.1-0.9-2.7c-0.6-0.6-1.5-0.8-2.9-0.8c-0.8,0-1.5,0.2-2.4,0.5c-0.8,0.4-1.4,1-1.7,1.9l-4.6-1.5c0.5-1.7,1.5-3.1,2.9-4.1
		c1.4-1.1,3.4-1.6,5.8-1.6c1.8,0,3.4,0.3,4.8,0.8c1.4,0.6,2.5,1.5,3.2,2.9c0.4,0.8,0.6,1.5,0.7,2.3c0.1,0.8,0.1,1.6,0.1,2.5V30h-4.5
		v-4.2l0.6,0.9c-1,1.4-2.1,2.4-3.2,3C115.7,30.3,114.2,30.6,112.5,30.6z M113.6,26.5c0.9,0,1.7-0.2,2.4-0.5c0.7-0.3,1.2-0.7,1.5-1.2
		c0.4-0.4,0.7-0.8,0.8-1.1c0.3-0.6,0.4-1.2,0.5-1.9c0.1-0.7,0.1-1.4,0.1-1.8l1.5,0.4c-1.5,0.3-2.8,0.5-3.7,0.6
		c-0.9,0.2-1.7,0.3-2.3,0.5c-0.6,0.1-1.1,0.3-1.5,0.5c-0.5,0.2-0.9,0.4-1.2,0.7c-0.3,0.2-0.5,0.5-0.7,0.8c-0.1,0.3-0.2,0.6-0.2,0.9
		c0,0.5,0.1,0.9,0.3,1.2c0.2,0.3,0.6,0.6,1,0.8C112.5,26.4,113,26.5,113.6,26.5z"/>
	<path class="st0" d="M126.9,30v-4.3c0.7,0.1,1.3,0.1,1.7,0c0.4-0.2,0.7-0.5,0.9-0.9c0.2-0.5,0.4-1.1,0.5-1.9
		c0.2-1.1,0.4-2.3,0.5-3.8c0.2-1.4,0.3-3,0.4-4.6c0.1-1.6,0.2-3.2,0.3-4.8h15.4V30h-5.1V14.4h-5.8c-0.1,0.7-0.1,1.4-0.2,2.3
		c-0.1,0.9-0.2,1.8-0.3,2.8c-0.1,1-0.2,1.9-0.3,2.8c-0.1,0.9-0.2,1.6-0.4,2.3c-0.3,1.6-0.7,2.9-1.3,3.8s-1.4,1.5-2.4,1.8
		C129.9,30.4,128.6,30.4,126.9,30z"/>
	<path class="st0" d="M170.2,9.6V30h-4.9V17.5L156.1,30H152V9.6h4.9v12l9.2-12H170.2z"/>
	<path class="st0" d="M178.1,39.1l3.9-10.8l0.1,3.2l-8.9-21.8h5.3l6,15.4h-1.2l5.9-15.4h5.1l-11.5,29.4H178.1z"/>
	<path class="st0" d="M205.2,30.6c-2.1,0-3.9-0.5-5.4-1.4c-1.5-0.9-2.7-2.2-3.5-3.8c-0.8-1.6-1.2-3.5-1.2-5.5c0-2.1,0.4-3.9,1.2-5.5
		c0.8-1.6,2-2.9,3.5-3.8c1.5-0.9,3.3-1.4,5.4-1.4c2.4,0,4.4,0.6,6,1.8c1.6,1.2,2.7,2.9,3.1,5l-5.1,1.4c-0.3-1.1-0.8-1.9-1.6-2.5
		c-0.7-0.6-1.6-0.9-2.5-0.9c-1.1,0-2,0.3-2.7,0.8c-0.7,0.5-1.2,1.2-1.5,2.1c-0.3,0.9-0.5,1.9-0.5,3c0,1.8,0.4,3.2,1.2,4.3
		c0.8,1.1,2,1.6,3.5,1.6c1.2,0,2-0.3,2.6-0.8c0.6-0.5,1.1-1.3,1.4-2.3l5.2,1.1c-0.6,2.2-1.7,3.8-3.3,5S207.6,30.6,205.2,30.6z"/>
	<path class="st1" d="M218.3,30v-5.1h5.1V30H218.3z"/>
</g>
<g>
	<path class="st2" d="M18.1,18.6c2.4-7.3-2.9-8.3-6.1-12.3C10.6,4.6,9.9,2.3,10.2,0c-4,2.8-4.9,8.4-2,12.3c0,0,0.1,0.1,0.1,0.1
		c-0.7-0.9-2-1.2-3-0.7c1.3,0.6,1.9,2.2,1.3,3.6c-0.2,0.4-0.5,0.8-0.9,1.1c-2.2,1.5-5.2-1-3.9-3.5c-4.4,7.9,0.6,16.9,9.4,16.9
		c7.8,0,13.9-7.1,9.6-14.8c0.4,1.4,0,3.9-1,4.7c-0.5,0.4-1.1,0.3-1.5-0.2C18.1,19.3,18,18.9,18.1,18.6L18.1,18.6z"/>
	
		<radialGradient id="SVGID_1_" cx="103.3935" cy="653.8038" r="12.2872" gradientTransform="matrix(6.123234e-17 1 2 -1.224647e-16 -1296.0986 -75.1873)" gradientUnits="userSpaceOnUse">
		<stop  offset="0" style="stop-color:#FFD600"/>
		<stop  offset="1" style="stop-color:#FFD600;stop-opacity:0"/>
	</radialGradient>
	<path class="st3" d="M18.1,18.6c2.4-7.3-2.9-8.3-6.1-12.3C10.6,4.6,9.9,2.3,10.2,0c-4,2.8-4.9,8.4-2,12.3c0,0,0.1,0.1,0.1,0.1
		c-0.7-0.9-2-1.2-3-0.7c1.3,0.6,1.9,2.2,1.3,3.6c-0.2,0.4-0.5,0.8-0.9,1.1c-2.2,1.5-5.2-1-3.9-3.5c-4.4,7.9,0.6,16.9,9.4,16.9
		c7.8,0,13.9-7.1,9.6-14.8c0.4,1.4,0,3.9-1,4.7c-0.5,0.4-1.1,0.3-1.5-0.2C18.1,19.3,18,18.9,18.1,18.6L18.1,18.6z"/>
	<path class="st4" d="M2.3,26.8h17.4c0.4,0,0.7,0.3,0.7,0.7c0,0,0,0,0,0v1.7c0,0.4-0.3,0.7-0.7,0.7l0,0H2.3c-0.4,0-0.7-0.3-0.7-0.7
		l0,0v-1.7C1.6,27.1,1.9,26.8,2.3,26.8z"/>
	<path class="st4" d="M9.4,22l-0.5-1.3c-0.1-0.2,0-0.4,0.2-0.5L9.6,20l0.8,2l-0.5,0.2C9.6,22.3,9.4,22.2,9.4,22
		C9.4,22,9.4,22,9.4,22z M7.1,16.7c0,0,0-0.1,0-0.1l0,0c0,0,0.1,0,0.1,0l0.6,1.1c0,0,0,0.1,0,0.1l0,0c0,0-0.1,0-0.1,0L7.1,16.7z
		 M2.7,24.7C2.6,24.7,2.6,24.7,2.7,24.7C2.6,24.6,2.6,24.6,2.7,24.7l-0.1-0.1c0,0,0-0.1,0.1-0.1H4c0.1,0,0.1,0,0.1,0.1v0.1
		c0,0,0,0.1-0.1,0.1L2.7,24.7z M2.2,24.7C2.2,24.7,2.1,24.7,2.2,24.7C2.1,24.6,2.1,24.6,2.2,24.7l-0.1-0.1c0,0,0-0.1,0.1-0.1h0.2
		c0.1,0,0.1,0,0.1,0.1v0.1c0,0,0,0.1-0.1,0.1L2.2,24.7z M2.9,22.3c-0.1,0-0.1-0.1-0.1-0.1v-0.1c0,0,0.1-0.1,0.1-0.1c0,0,0,0,0,0
		l1.2,0.3c0,0,0.1,0.1,0.1,0.1c0,0,0,0,0,0v0.1c0,0-0.1,0.1-0.1,0.1c0,0,0,0,0,0L2.9,22.3z M2.5,22.2c0,0-0.1-0.1-0.1-0.1
		c0,0,0,0,0,0v-0.1c0,0,0.1-0.1,0.1-0.1c0,0,0,0,0,0l0.2,0c0.1,0,0.1,0.1,0.1,0.1c0,0,0,0,0,0v0.1c0,0-0.1,0.1-0.1,0.1L2.5,22.2z
		 M3.8,20.1c0,0-0.1-0.1,0-0.1v0c0,0,0.1-0.1,0.1,0L5,20.5c0,0,0.1,0.1,0,0.1l0,0.1c0,0-0.1,0.1-0.1,0L3.8,20.1z M3.4,19.9
		c0,0-0.1-0.1,0-0.1l0,0c0,0,0.1-0.1,0.1,0c0,0,0,0,0,0l0.2,0.1c0,0,0.1,0.1,0,0.1v0c0,0-0.1,0.1-0.1,0c0,0,0,0,0,0L3.4,19.9z
		 M5.2,18.2c0,0,0-0.1,0-0.1c0,0,0,0,0,0l0,0c0,0,0.1,0,0.1,0c0,0,0,0,0,0l0.9,0.9c0,0,0,0.1,0,0.1l0,0c0,0-0.1,0-0.1,0c0,0,0,0,0,0
		L5.2,18.2z M4.9,17.9c0,0,0-0.1,0-0.1l0,0c0,0,0.1,0,0.1,0c0,0,0,0,0,0l0.1,0.1c0,0,0,0.1,0,0.1c0,0,0,0,0,0l0,0c0,0-0.1,0-0.1,0
		L4.9,17.9z M20.7,22.6c0.1,0,0.1,0,0.1,0.1v0.1c0,0.1,0,0.1-0.1,0.1l-1.2,0.3c0,0-0.1,0-0.1-0.1c0,0,0,0,0,0v-0.1
		c0,0,0-0.1,0.1-0.1L20.7,22.6z M21.2,22.5c0.1,0,0.1,0,0.1,0.1c0,0,0,0,0,0v0.1c0,0,0,0.1-0.1,0.1l-0.2,0c0,0-0.1,0-0.1-0.1
		c0,0,0,0,0,0v-0.1c0,0,0-0.1,0.1-0.1L21.2,22.5z M19.9,20.3c0,0,0.1,0,0.1,0c0,0,0,0,0,0v0c0,0,0,0.1,0,0.1l-1.1,0.6
		c0,0-0.1,0-0.1,0c0,0,0,0,0,0v0c0,0,0-0.1,0-0.1c0,0,0,0,0,0L19.9,20.3z M20.3,20.1c0,0,0.1,0,0.1,0c0,0,0,0,0,0v0c0,0,0,0.1,0,0.1
		c0,0,0,0,0,0l-0.2,0.1c0,0-0.1,0-0.1,0v-0.1c0,0,0-0.1,0-0.1c0,0,0,0,0,0L20.3,20.1z M6.9,16.3c0,0,0-0.1,0-0.1l0,0
		c0,0,0.1,0,0.1,0l0.1,0.1c0,0,0,0.1,0,0.1h0c0,0-0.1,0-0.1,0L6.9,16.3z M11.9,24.5l2.3-0.9c0.2-0.1,0.3-0.3,0.2-0.4c0,0,0,0,0,0
		l-0.9-2.3l10.7-4c0,0,0.1-0.1,0-0.1l-0.9-2.4c0,0-0.1-0.1-0.1,0l-10.6,4.4l-1.6-4c-2.5,1-1.6,3.3-1.4,5.3l0.8,2l0.9,2.4
		C11.4,24.5,11.6,24.6,11.9,24.5C11.8,24.5,11.9,24.5,11.9,24.5z M23.5,14.3l0.4-0.2c0,0,0,0,0.1,0c0,0,0,0,0,0l0.9,2.3
		c0,0,0,0,0,0.1c0,0,0,0,0,0l-0.4,0.2c0,0-0.1,0-0.1,0L23.5,14.3C23.4,14.3,23.4,14.3,23.5,14.3z M24.1,14l0.4-0.2h0.1c0,0,0,0,0,0
		l0.9,2.4c0,0,0,0,0,0.1c0,0,0,0,0,0l-0.4,0.2c0,0-0.1,0-0.1,0L24.1,14C24.1,14.1,24.1,14,24.1,14C24.1,14,24.1,14,24.1,14L24.1,14z
		 M24.8,13.7l0.4-0.2c0,0,0.1,0,0.1,0l0.9,2.4c0,0,0,0,0,0.1c0,0,0,0,0,0l-0.4,0.2c0,0-0.1,0-0.1,0L24.8,13.7
		C24.7,13.8,24.8,13.7,24.8,13.7L24.8,13.7z M25.5,13.5l0.4-0.2c0,0,0.1,0,0.1,0c0,0,0,0,0,0l1,2.5c0,0,0,0.1,0,0.1l-0.4,0.2
		c0,0-0.1,0-0.1,0L25.5,13.5C25.4,13.5,25.4,13.5,25.5,13.5C25.5,13.4,25.5,13.4,25.5,13.5L25.5,13.5z M26.2,13.2l0.5-0.2
		c0.2-0.1,0.4,0,0.5,0.2c0,0,0,0,0,0l0.8,1.9c0.1,0.2,0,0.4-0.2,0.5c0,0,0,0,0,0l-0.5,0.2c0,0-0.1,0-0.1,0L26.2,13.2
		C26.1,13.2,26.1,13.2,26.2,13.2L26.2,13.2z"/>
</g>
</svg>
