<svg width="16" height="12" viewBox="0 0 16 12" fill="none" xmlns="http://www.w3.org/2000/svg">
<path d="M5 0.5C4.44773 0.5 4 0.947729 4 1.5C4 2.05223 4.44772 2.5 5 2.5H14.75C15.3023 2.5 15.75 2.05227 15.75 1.5C15.75 0.947729 15.3023 0.5 14.75 0.5H5ZM14.75 5H1.25C0.697723 5 0.25 5.44777 0.25 6C0.25 6.55227 0.69773 7 1.25 7H14.75C15.3023 7 15.75 6.55227 15.75 6C15.75 5.44777 15.3023 5 14.75 5ZM14.75 9.5H8C7.44777 9.5 7 9.94772 7 10.5C7 11.0522 7.44776 11.5 8 11.5H14.75C15.3023 11.5 15.75 11.0522 15.75 10.5C15.75 9.94773 15.3023 9.5 14.75 9.5Z" fill="#3E414A" stroke="#3E414A" stroke-width="0.5"/>
</svg>
