<svg width="18" height="18" viewBox="0 0 18 18" fill="none" xmlns="http://www.w3.org/2000/svg">
<g id="mingcute:phone-fill" clip-path="url(#clip0_123_25)">
<g id="Group">
<path id="Vector" fill-rule="evenodd" clip-rule="evenodd" d="M12.4142 16.5997C11.3342 16.56 8.27349 16.137 5.06799 12.9322C1.86324 9.72675 1.44099 6.66675 1.40049 5.586C1.34049 3.939 2.60199 2.33925 4.05924 1.7145C4.23473 1.63872 4.42689 1.60987 4.61689 1.63078C4.80689 1.65169 4.98819 1.72163 5.14299 1.83375C6.34299 2.70825 7.17099 4.03125 7.88199 5.0715C8.03843 5.30005 8.10532 5.57816 8.06991 5.85285C8.0345 6.12753 7.89928 6.37959 7.68999 6.561L6.22674 7.64775C6.15605 7.6988 6.10629 7.77377 6.0867 7.85874C6.06711 7.94371 6.07903 8.0329 6.12024 8.10975C6.45174 8.712 7.04124 9.609 7.71624 10.284C8.39199 10.959 9.33099 11.5875 9.97524 11.9565C10.056 12.0018 10.1511 12.0145 10.2409 11.9919C10.3308 11.9693 10.4085 11.9132 10.4582 11.835L11.4107 10.3852C11.5859 10.1526 11.8442 9.9968 12.1316 9.95038C12.4191 9.90397 12.7133 9.97057 12.9527 10.1362C14.008 10.8667 15.2395 11.6805 16.141 12.8347C16.2622 12.9907 16.3393 13.1763 16.3643 13.3722C16.3892 13.5682 16.361 13.7672 16.2827 13.9485C15.655 15.4132 14.0665 16.6605 12.4142 16.5997Z" fill="#3E414A" fill-opacity="0.1"/>
</g>
</g>
<defs>
<clipPath id="clip0_123_25">
<rect width="18" height="18" fill="white"/>
</clipPath>
</defs>
</svg>
