<svg width="18" height="18" viewBox="0 0 18 18" fill="none" xmlns="http://www.w3.org/2000/svg">
<g id="ri:whatsapp-fill">
<path id="Vector" d="M9.00001 1.49999C13.1423 1.49999 16.5 4.85774 16.5 8.99999C16.5 13.1422 13.1423 16.5 9.00001 16.5C7.67459 16.5021 6.3725 16.1514 5.22751 15.4837L1.50301 16.5L2.51701 12.774C1.84883 11.6286 1.4978 10.326 1.50001 8.99999C1.50001 4.85774 4.85776 1.49999 9.00001 1.49999ZM6.44401 5.47499L6.29401 5.48099C6.1969 5.4869 6.102 5.51241 6.01501 5.55599C5.93365 5.60206 5.85938 5.65966 5.79451 5.72699C5.70451 5.81174 5.65351 5.88524 5.59876 5.95649C5.32135 6.31717 5.17199 6.75997 5.17426 7.21499C5.17576 7.58249 5.27176 7.94024 5.42176 8.27474C5.72851 8.95124 6.23326 9.66749 6.89926 10.3312C7.05976 10.491 7.21726 10.6515 7.38676 10.8007C8.2143 11.5293 9.20045 12.0548 10.2668 12.3352L10.6928 12.4005C10.8315 12.408 10.9703 12.3975 11.1098 12.3907C11.3282 12.3795 11.5415 12.3203 11.7345 12.2175C11.8327 12.1669 11.9286 12.1118 12.0218 12.0525C12.0218 12.0525 12.054 12.0315 12.1155 11.985C12.2168 11.91 12.279 11.8567 12.363 11.769C12.4253 11.7045 12.4793 11.6287 12.5205 11.5425C12.579 11.4202 12.6375 11.187 12.6615 10.9927C12.6795 10.8442 12.6743 10.7632 12.672 10.713C12.669 10.6327 12.6023 10.5495 12.5295 10.5142L12.093 10.3185C12.093 10.3185 11.4405 10.0342 11.0415 9.85274C10.9998 9.83451 10.955 9.82409 10.9095 9.82199C10.8582 9.81672 10.8063 9.82249 10.7574 9.83892C10.7085 9.85535 10.6637 9.88205 10.626 9.91724C10.6223 9.91574 10.572 9.95849 10.0298 10.6155C9.99864 10.6573 9.95577 10.6889 9.90661 10.7063C9.85746 10.7236 9.80425 10.726 9.75376 10.713C9.7049 10.6999 9.65703 10.6833 9.61051 10.6635C9.51751 10.6245 9.48526 10.6095 9.42151 10.5825C8.99106 10.3946 8.59253 10.1409 8.24026 9.83024C8.14576 9.74774 8.05801 9.65774 7.96801 9.57074C7.67295 9.28816 7.4158 8.96849 7.20301 8.61974L7.15876 8.54849C7.12698 8.50061 7.10128 8.44897 7.08226 8.39474C7.05376 8.28449 7.12801 8.19599 7.12801 8.19599C7.12801 8.19599 7.31026 7.99649 7.39501 7.88849C7.47751 7.78349 7.54726 7.68149 7.59226 7.60874C7.68076 7.46624 7.70851 7.31999 7.66201 7.20674C7.45201 6.69374 7.23451 6.18299 7.01101 5.67599C6.96676 5.57549 6.83551 5.50349 6.71626 5.48924C6.67576 5.48474 6.63526 5.48024 6.59476 5.47724C6.49404 5.47223 6.39311 5.47324 6.29251 5.48024L6.44401 5.47499Z" fill="#3E414A" fill-opacity="0.1"/>
</g>
</svg>
