<svg width="26" height="25" viewBox="0 0 26 25" fill="none" xmlns="http://www.w3.org/2000/svg">
<g id="ri:whatsapp-fill">
<path id="Vector" d="M13.0026 2.08332C18.7557 2.08332 23.4193 6.74686 23.4193 12.5C23.4193 18.2531 18.7557 22.9167 13.0026 22.9167C11.1618 22.9196 9.3533 22.4325 7.76304 21.5052L2.59012 22.9167L3.99845 17.7417C3.07042 16.1509 2.58288 14.3417 2.58595 12.5C2.58595 6.74686 7.24949 2.08332 13.0026 2.08332ZM9.45262 7.60415L9.24428 7.61249C9.10941 7.6207 8.9776 7.65613 8.85678 7.71665C8.74379 7.78064 8.64064 7.86064 8.55054 7.95415C8.42554 8.07186 8.3547 8.17395 8.27866 8.2729C7.89337 8.77384 7.68592 9.38885 7.68908 10.0208C7.69116 10.5312 7.82449 11.0281 8.03283 11.4927C8.45887 12.4323 9.15991 13.4271 10.0849 14.3489C10.3078 14.5708 10.5266 14.7937 10.762 15.001C11.9114 16.013 13.281 16.7427 14.762 17.1323L15.3537 17.2229C15.5464 17.2333 15.7391 17.2187 15.9328 17.2094C16.2362 17.1937 16.5324 17.1116 16.8005 16.9687C16.9369 16.8985 17.0701 16.822 17.1995 16.7396C17.1995 16.7396 17.2443 16.7104 17.3297 16.6458C17.4703 16.5417 17.5568 16.4677 17.6735 16.3458C17.7599 16.2562 17.8349 16.151 17.8922 16.0312C17.9735 15.8614 18.0547 15.5375 18.088 15.2677C18.113 15.0614 18.1057 14.9489 18.1026 14.8792C18.0985 14.7677 18.0057 14.6521 17.9047 14.6031L17.2985 14.3312C17.2985 14.3312 16.3922 13.9364 15.838 13.6844C15.78 13.659 15.7179 13.6446 15.6547 13.6417C15.5834 13.6343 15.5114 13.6424 15.4435 13.6652C15.3756 13.688 15.3133 13.7251 15.261 13.7739C15.2557 13.7719 15.186 13.8312 14.4328 14.7437C14.3896 14.8018 14.3301 14.8457 14.2618 14.8698C14.1935 14.894 14.1196 14.8972 14.0495 14.8792C13.9816 14.861 13.9151 14.838 13.8505 14.8104C13.7214 14.7562 13.6766 14.7354 13.588 14.6979C12.9902 14.437 12.4367 14.0845 11.9474 13.6531C11.8162 13.5385 11.6943 13.4135 11.5693 13.2927C11.1595 12.9002 10.8023 12.4562 10.5068 11.9719L10.4453 11.8729C10.4012 11.8064 10.3655 11.7347 10.3391 11.6594C10.2995 11.5062 10.4026 11.3833 10.4026 11.3833C10.4026 11.3833 10.6557 11.1062 10.7735 10.9562C10.888 10.8104 10.9849 10.6687 11.0474 10.5677C11.1703 10.3698 11.2089 10.1667 11.1443 10.0094C10.8526 9.29686 10.5505 8.58749 10.2401 7.88332C10.1787 7.74374 9.99637 7.64374 9.83074 7.62395C9.77449 7.6177 9.71824 7.61145 9.66199 7.60728C9.5221 7.60033 9.38193 7.60172 9.2422 7.61145L9.45262 7.60415Z" fill="url(#paint0_linear_123_63)"/>
</g>
<defs>
<linearGradient id="paint0_linear_123_63" x1="2.58594" y1="12.5" x2="23.4193" y2="12.5" gradientUnits="userSpaceOnUse">
<stop stop-color="#EB1B24"/>
<stop offset="1" stop-color="#FF5058"/>
</linearGradient>
</defs>
</svg>
