<svg width="55" height="55" viewBox="0 0 55 55" fill="none" xmlns="http://www.w3.org/2000/svg">
<g id="icon">
<rect id="Rectangle 627" width="55" height="55" rx="8" fill="white"/>
<g id="Group">
<g id="Group_2">
<path id="Vector" d="M13.3168 13.3237C13.5209 13.1179 13.7984 13.0016 14.0882 13.0002C14.3781 12.9988 14.6566 13.1126 14.8627 13.3164L22.1543 20.5352C22.3549 20.7404 22.4668 21.0162 22.4659 21.3031C22.465 21.59 22.3514 21.8651 22.1496 22.0691C21.9477 22.273 21.6738 22.3895 21.3869 22.3934C21.1 22.3972 20.823 22.2882 20.6158 22.0898L13.3241 14.871C13.1183 14.6669 13.002 14.3894 13.0006 14.0996C12.9992 13.8098 13.113 13.5312 13.3168 13.3252V13.3237ZM22.1631 32.2821C22.2642 32.3841 22.3443 32.5051 22.3987 32.6381C22.4531 32.7711 22.4807 32.9135 22.48 33.0572C22.4794 33.2009 22.4504 33.3431 22.3947 33.4755C22.3391 33.608 22.2579 33.7283 22.1558 33.8293L14.8641 41.0481C14.658 41.2523 14.3791 41.3663 14.089 41.3649C13.7988 41.3635 13.521 41.247 13.3168 41.0408C13.1126 40.8347 12.9986 40.5558 13 40.2656C13.0014 39.9755 13.118 39.6977 13.3241 39.4935L20.6158 32.2748C20.7178 32.1736 20.8388 32.0935 20.9718 32.0392C21.1048 31.9848 21.2472 31.9571 21.3909 31.9578C21.5346 31.9585 21.6768 31.9875 21.8093 32.0431C21.9418 32.0987 22.062 32.1799 22.1631 32.2821ZM32.3524 32.2791C32.5575 32.0743 32.8355 31.9593 33.1254 31.9593C33.4152 31.9593 33.6932 32.0743 33.8983 32.2791L41.117 39.4979C41.3102 39.7052 41.4154 39.9795 41.4104 40.2628C41.4054 40.5462 41.2906 40.8165 41.0902 41.0169C40.8898 41.2173 40.6195 41.3321 40.3361 41.3371C40.0528 41.3421 39.7785 41.2369 39.5712 41.0437L32.3524 33.825C32.1476 33.6199 32.0326 33.3419 32.0326 33.0521C32.0326 32.7622 32.1476 32.4842 32.3524 32.2791ZM41.0441 13.3208C41.2489 13.5259 41.364 13.8039 41.364 14.0937C41.364 14.3836 41.2489 14.6616 41.0441 14.8666L33.8254 22.0854C33.7252 22.1928 33.6045 22.279 33.4703 22.3388C33.3361 22.3986 33.1913 22.4307 33.0445 22.4333C32.8976 22.4359 32.7517 22.4089 32.6155 22.3539C32.4793 22.2989 32.3556 22.217 32.2518 22.1131C32.1479 22.0093 32.066 21.8856 32.011 21.7494C31.956 21.6132 31.929 21.4673 31.9316 21.3205C31.9342 21.1736 31.9663 21.0288 32.0261 20.8946C32.0859 20.7604 32.1721 20.6397 32.2795 20.5396L39.4983 13.3208C39.7034 13.116 39.9813 13.0009 40.2712 13.0009C40.561 13.0009 40.839 13.116 41.0441 13.3208Z" fill="#3E414A"/>
<path id="Vector_2" d="M32.6875 14.0938C32.6875 13.8037 32.8027 13.5255 33.0079 13.3204C33.213 13.1152 33.4912 13 33.7812 13H40.3438C40.6338 13 40.912 13.1152 41.1171 13.3204C41.3223 13.5255 41.4375 13.8037 41.4375 14.0938V20.6562C41.4375 20.9463 41.3223 21.2245 41.1171 21.4296C40.912 21.6348 40.6338 21.75 40.3438 21.75C40.0537 21.75 39.7755 21.6348 39.5704 21.4296C39.3652 21.2245 39.25 20.9463 39.25 20.6562V15.1875H33.7812C33.4912 15.1875 33.213 15.0723 33.0079 14.8671C32.8027 14.662 32.6875 14.3838 32.6875 14.0938ZM40.3438 32.6875C40.6338 32.6875 40.912 32.8027 41.1171 33.0079C41.3223 33.213 41.4375 33.4912 41.4375 33.7812V40.3438C41.4375 40.6338 41.3223 40.912 41.1171 41.1171C40.912 41.3223 40.6338 41.4375 40.3438 41.4375H33.7812C33.4912 41.4375 33.213 41.3223 33.0079 41.1171C32.8027 40.912 32.6875 40.6338 32.6875 40.3438C32.6875 40.0537 32.8027 39.7755 33.0079 39.5704C33.213 39.3652 33.4912 39.25 33.7812 39.25H39.25V33.7812C39.25 33.4912 39.3652 33.213 39.5704 33.0079C39.7755 32.8027 40.0537 32.6875 40.3438 32.6875ZM14.0938 32.6875C14.3838 32.6875 14.662 32.8027 14.8671 33.0079C15.0723 33.213 15.1875 33.4912 15.1875 33.7812V39.25H20.6562C20.9463 39.25 21.2245 39.3652 21.4296 39.5704C21.6348 39.7755 21.75 40.0537 21.75 40.3438C21.75 40.6338 21.6348 40.912 21.4296 41.1171C21.2245 41.3223 20.9463 41.4375 20.6562 41.4375H14.0938C13.8037 41.4375 13.5255 41.3223 13.3204 41.1171C13.1152 40.912 13 40.6338 13 40.3438V33.7812C13 33.4912 13.1152 33.213 13.3204 33.0079C13.5255 32.8027 13.8037 32.6875 14.0938 32.6875ZM13 14.0938C13 13.8037 13.1152 13.5255 13.3204 13.3204C13.5255 13.1152 13.8037 13 14.0938 13H20.6562C20.9463 13 21.2245 13.1152 21.4296 13.3204C21.6348 13.5255 21.75 13.8037 21.75 14.0938C21.75 14.3838 21.6348 14.662 21.4296 14.8671C21.2245 15.0723 20.9463 15.1875 20.6562 15.1875H15.1875V20.6562C15.1875 20.9463 15.0723 21.2245 14.8671 21.4296C14.662 21.6348 14.3838 21.75 14.0938 21.75C13.8037 21.75 13.5255 21.6348 13.3204 21.4296C13.1152 21.2245 13 20.9463 13 20.6562V14.0938Z" fill="#3E414A"/>
</g>
</g>
</g>
</svg>
