<svg width="96" height="31" viewBox="0 0 96 31" fill="none" xmlns="http://www.w3.org/2000/svg">
<path d="M91.277 9.05642C72.8044 9.46958 59.9264 10.5761 47.4997 13.5342C35.0725 16.4924 23.0889 21.3047 6.40569 29.1292L5.85635 28.9556L3.36719 24.6439L3.55585 24.0461C20.761 15.9771 33.1857 11.1311 46.0645 8.15358C58.9417 5.17658 72.2607 4.07008 91.257 3.47958L91.696 3.90542V8.63058L91.277 9.05642ZM47.3025 12.7026C48.8762 12.3281 50.4569 11.9829 52.0549 11.6654L46.3122 9.08958L42.5347 13.9338C44.1239 13.4916 45.7095 13.0819 47.3025 12.7026ZM54.7205 11.1634C57.9352 10.5912 61.241 10.1213 64.7185 9.73492L59.1154 6.73942L54.7205 11.1634ZM67.3429 9.46242C70.4902 9.15742 73.7867 8.91442 77.288 8.72042L71.6305 5.42242L67.3429 9.46242ZM80.0574 8.57925C83.1944 8.43225 86.497 8.31992 90.0012 8.23425L85.0875 4.65842L80.0574 8.57925ZM7.18969 27.8223C10.5469 26.2554 13.7147 24.8123 16.736 23.4828L10.2327 22.0261L7.18969 27.8223ZM19.01 22.4919C22.2242 21.1056 25.2779 19.8516 28.2269 18.7171L21.7499 17.0711L19.01 22.4919ZM30.6337 17.8094C33.827 16.6296 36.9117 15.5913 39.9632 14.6771L33.7497 12.6273L30.6337 17.8094ZM4.33685 24.6207L6.20752 27.8614L9.05335 22.4406C7.52052 23.1394 5.94969 23.8659 4.33685 24.6207ZM45.1012 9.25725C41.7234 10.0694 38.3652 11.0144 34.9309 12.1173L41.2465 14.2007L45.1012 9.25725ZM32.5997 12.8859C29.4674 13.9454 26.2559 15.1372 22.8944 16.4806L29.4384 18.1434L32.5997 12.8859ZM20.6284 17.3994C17.6724 18.6151 14.5934 19.9457 11.347 21.4029L17.8667 22.8632L20.6284 17.3994ZM90.8412 4.34508C89.2974 4.39408 87.7912 4.44642 86.3197 4.50308L90.8412 7.79325V4.34508ZM83.7677 4.60708C79.9505 4.77225 76.3699 4.97058 72.9705 5.21642L78.7004 8.55675L83.7677 4.60708ZM70.395 5.41475C66.8977 5.70108 63.5875 6.04408 60.4009 6.46092L66.0689 9.49125L70.395 5.41475ZM57.8379 6.81592C54.2942 7.33525 50.8869 7.95475 47.5222 8.69875L53.3649 11.3191L57.8379 6.81592Z" fill="#3E414A"/>
<path d="M91.277 9.05642C72.8044 9.46958 59.9264 10.5761 47.4997 13.5342C35.0725 16.4924 23.0889 21.3047 6.40569 29.1292L5.85635 28.9556L3.36719 24.6439L3.55585 24.0461C20.761 15.9771 33.1857 11.1311 46.0645 8.15358C58.9417 5.17658 72.2607 4.07008 91.257 3.47958L91.696 3.90542V8.63058L91.277 9.05642ZM47.3025 12.7026C48.8762 12.3281 50.4569 11.9829 52.0549 11.6654L46.3122 9.08958L42.5347 13.9338C44.1239 13.4916 45.7095 13.0819 47.3025 12.7026ZM54.7205 11.1634C57.9352 10.5912 61.241 10.1213 64.7185 9.73492L59.1154 6.73942L54.7205 11.1634ZM67.3429 9.46242C70.4902 9.15742 73.7867 8.91442 77.288 8.72042L71.6305 5.42242L67.3429 9.46242ZM80.0574 8.57925C83.1944 8.43225 86.497 8.31992 90.0012 8.23425L85.0875 4.65842L80.0574 8.57925ZM7.18969 27.8223C10.5469 26.2554 13.7147 24.8123 16.736 23.4828L10.2327 22.0261L7.18969 27.8223ZM19.01 22.4919C22.2242 21.1056 25.2779 19.8516 28.2269 18.7171L21.7499 17.0711L19.01 22.4919ZM30.6337 17.8094C33.827 16.6296 36.9117 15.5913 39.9632 14.6771L33.7497 12.6273L30.6337 17.8094ZM4.33685 24.6207L6.20752 27.8614L9.05335 22.4406C7.52052 23.1394 5.94969 23.8659 4.33685 24.6207ZM45.1012 9.25725C41.7234 10.0694 38.3652 11.0144 34.9309 12.1173L41.2465 14.2007L45.1012 9.25725ZM32.5997 12.8859C29.4674 13.9454 26.2559 15.1372 22.8944 16.4806L29.4384 18.1434L32.5997 12.8859ZM20.6284 17.3994C17.6724 18.6151 14.5934 19.9457 11.347 21.4029L17.8667 22.8632L20.6284 17.3994ZM90.8412 4.34508C89.2974 4.39408 87.7912 4.44642 86.3197 4.50308L90.8412 7.79325V4.34508ZM83.7677 4.60708C79.9505 4.77225 76.3699 4.97058 72.9705 5.21642L78.7004 8.55675L83.7677 4.60708ZM70.395 5.41475C66.8977 5.70108 63.5875 6.04408 60.4009 6.46092L66.0689 9.49125L70.395 5.41475ZM57.8379 6.81592C54.2942 7.33525 50.8869 7.95475 47.5222 8.69875L53.3649 11.3191L57.8379 6.81592Z" fill="#3E414A"/>
<path d="M1.96484 24.0613C4.42968 22.9428 6.89434 21.8241 10.1285 20.3994C13.3625 18.9748 17.3658 17.2439 21.0915 15.7374C24.817 14.2309 28.2647 12.9486 31.5772 11.8089C34.8897 10.6691 38.0665 9.67194 40.8377 8.90277C43.6087 8.13327 45.9737 7.59194 48.9085 7.01494C51.8433 6.43777 55.3482 5.82527 58.6962 5.34794C62.0443 4.87061 65.2355 4.52877 67.6575 4.27961C70.0795 4.03011 71.732 3.87344 73.9333 3.71677C76.1345 3.56011 78.884 3.40327 82.0327 3.26094C85.1812 3.11844 88.7287 2.99011 92.2762 2.86194" stroke="url(#paint0_linear_123_288)" stroke-width="1.76383" stroke-miterlimit="22.9256"/>
<defs>
<linearGradient id="paint0_linear_123_288" x1="1.96484" y1="13.4616" x2="92.2762" y2="13.4616" gradientUnits="userSpaceOnUse">
<stop stop-color="#EB1B24"/>
<stop offset="1" stop-color="#FF5058"/>
</linearGradient>
</defs>
</svg>
