<svg width="117" height="31" viewBox="0 0 117 31" fill="none" xmlns="http://www.w3.org/2000/svg">
<path d="M112.583 14.5997C95.108 16.5797 77.5134 18.6137 59.9196 20.6475C42.433 22.6687 24.9452 24.6903 7.25239 26.6953L6.68159 26.2337L5.86719 18.3535L6.32479 17.7867C23.7992 15.8067 41.4682 13.7641 59.1368 11.7221C76.698 9.69233 94.2594 7.66233 111.953 5.65753L112.526 6.13713C112.614 7.42193 112.698 8.75093 112.783 10.0793C112.866 11.3857 112.95 12.6925 113.042 14.0509L112.583 14.5997ZM59.8022 19.6191L71.6412 18.2509L64.1424 12.4065L58.629 19.7545L59.8022 19.6191ZM74.1236 17.9643L87.6802 16.4025L79.9026 10.5729L74.1236 17.9643ZM90.2384 16.1085C94.8448 15.5797 99.4592 15.0513 104.086 14.5241L96.318 8.68073L90.2384 16.1085ZM106.571 14.2409L111.976 13.6271C111.9 12.4859 111.825 11.3147 111.75 10.1441L111.586 7.59293L106.571 14.2409ZM8.53659 25.5083C13.4672 24.9491 18.4074 24.3857 23.3538 23.8193L15.6362 17.9483L8.53659 25.5083ZM25.898 23.5277L40.4098 21.8587L31.9912 16.0825L25.898 23.5277ZM43.0178 21.5579L56.1992 20.0355L48.847 14.1697L43.0178 21.5579ZM6.94839 18.7573L7.59359 25.0021L14.2358 17.9291L6.94839 18.7573ZM59.2542 12.7505L50.0588 13.8131L57.4008 19.6707L62.9102 12.3279L59.2542 12.7505ZM47.5886 14.0983L33.3244 15.7429L41.737 21.5149L47.5886 14.0983ZM30.682 16.0467L16.9136 17.6237L24.6036 23.4737L30.682 16.0467ZM110.871 6.82133C106.451 7.32273 102.019 7.82793 97.5774 8.33593L105.33 14.1679L110.871 6.82133ZM95.022 8.62853L81.156 10.2217L88.9414 16.0575L95.022 8.62853ZM78.6392 10.5119L65.3588 12.0449L72.8658 17.8959L78.6392 10.5119Z" fill="#3E414A"/>
<path d="M4.78906 17.1602C40.9135 12.9708 77.0381 8.78156 113.162 4.59216" stroke="url(#paint0_linear_123_296)" stroke-width="2.1166" stroke-miterlimit="22.9256"/>
<defs>
<linearGradient id="paint0_linear_123_296" x1="4.78906" y1="10.8762" x2="113.162" y2="10.8762" gradientUnits="userSpaceOnUse">
<stop stop-color="#EB1B24"/>
<stop offset="1" stop-color="#FF5058"/>
</linearGradient>
</defs>
</svg>
