<svg width="88" height="31" viewBox="0 0 88 31" fill="none" xmlns="http://www.w3.org/2000/svg">
<g id="triangle-triangle 1">
<g id="_2072766308096">
<path id="path855" opacity="0.94" fill-rule="evenodd" clip-rule="evenodd" d="M83.7006 5.51933V27.5471L83.3151 27.9328H4.34854L4.24609 27.1765L83.2127 5.14883L83.7006 5.51933ZM82.9295 27.1615V7.23878L73.532 27.1615H82.9295ZM7.16179 27.1615H37.4478L31.5573 20.3564L7.16179 27.1615ZM39.0023 27.1615H53.6L45.8756 16.6438L39.0023 27.1615ZM55.0149 27.1615H72.2634L63.5499 11.8184L55.0149 27.1615ZM82.6083 6.11573L64.124 11.272L72.8928 26.7125L82.6083 6.11573ZM62.7632 11.6515L46.4963 16.1891L54.3161 26.8366L62.7632 11.6515ZM44.9751 16.6135L32.3763 20.128L38.2467 26.9095L44.9751 16.6135Z" fill="black" stroke="#3E414A" stroke-width="0.795" stroke-miterlimit="22.9256"/>
<path id="path857" d="M31.3651 20.0494C30.3017 20.8985 29.2383 21.7477 28.175 22.5968C27.5978 23.0577 27.0206 23.5186 26.4434 23.9795C25.9042 24.4101 25.3649 24.8407 24.8257 25.2713C23.8629 26.0402 22.9001 26.809 21.9373 27.5779C20.1121 26.4725 18.3363 25.6619 16.5111 24.5564C13.1085 25.5461 9.65651 26.2412 6.25391 27.2309" stroke="#3E414A" stroke-width="0.795" stroke-miterlimit="22.9256"/>
<path id="path861" d="M3.22266 27.1059C30.316 19.42 57.4092 11.734 84.5025 4.04831" stroke="url(#paint0_linear_123_303)" stroke-width="1.58745" stroke-miterlimit="22.9256"/>
<path id="path857-6" d="M32.2714 19.9799C31.208 20.8291 30.1446 21.6782 29.0812 22.5274C28.504 22.9883 27.9268 23.4492 27.3497 23.9101C26.8104 24.3407 26.2712 24.7713 25.732 25.2019C24.7692 25.9707 23.8063 26.7396 22.8436 27.5085C21.0184 26.4031 19.2425 25.5925 17.4173 24.487C14.0148 25.4767 10.5628 26.1718 7.16016 27.1615" stroke="#3E414A" stroke-width="0.795" stroke-miterlimit="22.9256"/>
</g>
</g>
<defs>
<linearGradient id="paint0_linear_123_303" x1="3.22266" y1="15.5771" x2="84.5025" y2="15.5771" gradientUnits="userSpaceOnUse">
<stop stop-color="#EB1B24"/>
<stop offset="1" stop-color="#FF5058"/>
</linearGradient>
</defs>
</svg>
