<svg width="120" height="31" viewBox="0 0 120 31" fill="none" xmlns="http://www.w3.org/2000/svg">
<path d="M59.3717 5.30297L13.3643 20.8106L59.4246 20.5556L59.3717 5.30297ZM8.53906 21.2964L59.8065 4.21997L59.8326 22.7383L8.79471 22.4673L8.53906 21.2964Z" fill="#3E414A"/>
<path d="M59.0931 5.69593L15.1187 20.5185L59.1437 20.2746L59.0931 5.69593ZM13.2771 20.5425L59.5277 4.95279L59.5272 4.61143L8.87244 21.4836L9.02565 22.1861L59.5523 22.4544L59.5499 20.8374C43.5717 20.9218 27.5935 21.0148 11.6153 21.1026L13.2771 20.5425ZM8.45308 21.0283L60.091 3.82843L60.118 23.0222C42.9349 22.9314 25.7517 22.8454 8.56879 22.7484L8.21094 21.1089L8.45308 21.0283Z" fill="#3E414A"/>
<path d="M60.2395 5.30266L106.247 20.8103L60.2427 20.5551L60.2395 5.30266ZM111.072 21.2961L59.8047 4.21967L59.8351 22.7376L110.816 22.4669L111.072 21.2961Z" fill="#3E414A"/>
<path d="M60.3311 5.03468L108.001 21.1025C92.0396 21.0146 76.077 20.9443 60.1161 20.8367L60.1189 22.4537L110.59 22.1859L110.743 21.4835L60.0896 4.61168L60.0902 4.95346L60.3311 5.03468ZM104.497 20.5183L60.5237 5.69639L60.5269 20.2742L104.497 20.5183ZM59.895 3.95168L111.405 21.1087L111.047 22.7482C93.8831 22.8452 76.719 22.9305 59.5552 23.0216C59.5406 16.6237 59.5339 10.2257 59.5234 3.82782L59.895 3.95168Z" fill="#3E414A"/>
<path d="M1.81641 21.6574C21.071 15.3424 40.2721 8.82987 59.5351 2.51209L59.8092 2.42188C79.2046 8.79816 98.5293 15.3641 117.931 21.7224L117.382 23.4086L59.8092 4.2883C40.64 10.5808 21.5275 17.0589 2.36476 23.3437L1.81641 21.6574Z" fill="url(#paint0_linear_123_318)"/>
<path fill-rule="evenodd" clip-rule="evenodd" d="M16.4904 27.6079H13.9258V21.3132H16.4904V27.6079Z" fill="#3E414A"/>
<path fill-rule="evenodd" clip-rule="evenodd" d="M105.123 27.6236H102.559V21.3289H105.123V27.6236Z" fill="#3E414A"/>
<path d="M29.7815 15.0266V21.3101H28.2695V15.0266H29.7815Z" fill="#3E414A"/>
<path d="M23.1526 17.5062V22.057H21.6406V17.5062H23.1526Z" fill="#3E414A"/>
<path d="M39.8206 11.8284V21.7967H38.3086V11.8284H39.8206Z" fill="#3E414A"/>
<path d="M49.5706 8.23425V21.9618H48.0586V8.23425H49.5706Z" fill="#3E414A"/>
<path d="M28.7097 21.3242L22.5312 17.8286L23.2752 16.5176L28.9873 19.7492L38.6226 11.3664L39.6147 11.3694L48.8112 19.4175L59.0226 4.59131L60.2629 5.44759L49.5722 20.97L48.456 21.1089L39.1189 12.9377L29.5778 21.2387L28.7097 21.3242Z" fill="#3E414A"/>
<path d="M91.9378 15.7076V21.9911H90.4258V15.7076H91.9378Z" fill="#3E414A"/>
<path d="M98.5706 17.734V21.9861H97.0586V17.734H98.5706Z" fill="#3E414A"/>
<path d="M81.8987 12.5094V22.4778H80.3867V12.5094H81.8987Z" fill="#3E414A"/>
<path d="M72.1487 8.91522V22.6428H70.6367V8.91522H72.1487Z" fill="#3E414A"/>
<path d="M91.221 20.4303L96.933 17.1986L97.677 18.5096L91.4985 22.0053L90.6304 21.9198L81.0893 13.6188L71.7522 21.7899L70.636 21.6511L59.9453 6.12862L61.1856 5.27234L71.397 20.0986L80.5935 12.0504L81.5856 12.0474L91.221 20.4303Z" fill="#3E414A"/>
<defs>
<linearGradient id="paint0_linear_123_318" x1="1.81641" y1="12.9152" x2="117.931" y2="12.9152" gradientUnits="userSpaceOnUse">
<stop stop-color="#EB1B24"/>
<stop offset="1" stop-color="#FF5058"/>
</linearGradient>
</defs>
</svg>
